<svg version="1.1" id="Layer_1" xmlns="http://www.w3.org/2000/svg" xmlns:xlink="http://www.w3.org/1999/xlink" x="0px" y="0px"
	 width="100%" viewBox="0 0 2560 615" enable-background="new 0 0 2560 615" xml:space="preserve">
<path fill="#000000" opacity="1.000000" stroke="none" 
	d="
M0.999998,272.000000 
	C1.000000,181.690842 1.000000,91.381683 1.000000,1.000000 
	C411.032715,1.000000 821.065430,1.000000 1231.888184,1.220223 
	C1231.452393,2.787443 1230.278931,4.186803 1228.993164,5.473785 
	C1198.375244,36.120220 1167.711426,66.721176 1137.205688,97.478920 
	C1135.479004,99.219925 1134.116089,102.230789 1134.119385,104.648460 
	C1134.309326,240.873550 1134.712280,377.098328 1134.931763,513.323425 
	C1134.956543,528.736755 1137.171753,543.620605 1143.064575,557.844055 
	C1150.044800,574.692322 1162.053589,586.925659 1178.347534,594.974304 
	C1194.099243,602.754944 1211.133667,605.876892 1228.367065,606.767151 
	C1243.236084,607.535339 1258.296997,607.225037 1273.108765,605.745911 
	C1288.621826,604.196716 1303.899902,600.410645 1319.367554,598.213745 
	C1323.585083,597.614685 1324.063599,596.044800 1324.049683,592.566406 
	C1323.951294,568.073547 1324.001465,543.580139 1323.985962,519.086914 
	C1323.985107,517.793579 1323.819946,516.500366 1323.715332,514.972717 
	C1320.033203,515.349182 1316.606323,515.536926 1313.234497,516.072144 
	C1297.518066,518.566711 1281.840698,521.632812 1265.818481,518.987732 
	C1258.333984,517.752014 1251.181641,515.537842 1245.623535,510.067078 
	C1237.201782,501.777649 1235.158081,490.870941 1235.121216,479.873596 
	C1234.883667,409.060638 1234.999878,338.246490 1234.999878,267.432739 
	C1234.999878,265.682556 1234.999878,263.932373 1234.999878,261.874420 
	C1265.006714,261.874420 1294.276245,261.874420 1323.724243,261.874420 
	C1323.724243,237.836731 1323.724243,214.117157 1323.724243,189.884705 
	C1294.068604,189.884705 1264.681641,189.884705 1235.000000,189.884705 
	C1235.000000,126.581085 1235.000000,63.790543 1235.000000,1.000000 
	C1676.957642,1.000000 2118.915283,1.000000 2560.936523,1.000000 
	C2560.936523,205.937927 2560.936523,410.875885 2560.936523,616.000000 
	C1812.967285,616.000000 1064.934570,616.000000 316.167969,615.635498 
	C316.280975,614.850525 317.087555,614.203674 317.980896,614.044861 
	C326.639343,612.505676 335.420135,611.502319 343.959198,609.475098 
	C362.741180,605.016235 380.627136,598.223572 397.807404,589.196106 
	C416.220490,579.520752 432.475159,567.089417 447.396423,552.898132 
	C454.861755,545.797974 461.402283,537.649597 467.845886,529.564758 
	C488.574707,503.556061 503.764954,474.407104 516.034119,443.597900 
	C482.521118,428.225830 449.219299,412.950592 416.812927,398.086121 
	C409.702484,413.483856 403.324860,428.717651 395.748444,443.329895 
	C386.906372,460.383209 374.557251,474.806732 359.580536,486.972198 
	C336.938629,505.363983 310.741241,513.835327 281.956055,514.907410 
	C274.382538,515.189514 266.766174,514.346985 259.170441,513.999512 
	C242.359253,513.230591 226.370132,508.795135 211.185822,501.931366 
	C179.268402,487.503784 155.853897,463.788635 140.210266,432.814056 
	C133.227188,418.987488 128.072067,404.137573 123.141548,389.399384 
	C116.743004,370.273010 114.128807,350.235077 113.212288,330.209076 
	C112.171074,307.458313 112.929977,284.705200 116.839737,262.069794 
	C120.823601,239.005371 127.280296,216.787247 137.723206,195.942093 
	C147.644882,176.137390 160.333832,158.335617 177.509705,143.715759 
	C192.250107,131.168930 208.667603,121.873802 226.854584,116.307671 
	C246.637314,110.253151 267.024109,107.590225 287.990356,109.822441 
	C303.877258,111.513885 319.002808,115.239815 333.453217,121.856316 
	C348.619202,128.800476 362.109467,138.175461 372.572754,151.255981 
	C378.842560,159.094055 384.665802,167.378952 389.864899,175.962631 
	C397.430573,188.453476 400.625336,202.604507 403.444305,217.560272 
	C438.858856,208.505875 473.935181,199.537949 508.896271,190.599487 
	C508.940582,189.630219 509.080261,189.103897 508.969543,188.636993 
	C502.758026,162.451126 493.748291,137.338074 480.008606,114.088226 
	C472.201660,100.877640 463.479370,88.260651 452.676208,77.323837 
	C445.143616,69.698067 437.191925,62.427681 428.947479,55.576065 
	C412.310394,41.749638 393.584015,31.247473 373.222565,24.141977 
	C359.963165,19.514879 346.310303,15.535618 332.512085,13.055383 
	C315.796387,10.050730 298.782532,8.183110 281.819336,7.254199 
	C269.865417,6.599596 257.725464,7.822492 245.769974,9.132518 
	C233.150436,10.515308 220.529282,12.431886 208.124130,15.111856 
	C179.929047,21.203035 153.798004,32.615753 129.611023,48.211452 
	C110.941948,60.249229 93.620949,74.054756 79.297981,91.240234 
	C72.392036,99.526367 65.397957,107.767883 58.988514,116.432556 
	C48.024323,131.254639 38.444141,147.031662 31.581263,164.144547 
	C24.775581,181.114822 18.004208,198.246811 13.274632,215.860168 
	C8.525712,233.545593 6.333534,251.916031 2.924499,269.968048 
	C2.778903,270.739014 1.663578,271.326843 0.999998,272.000000 
M2556.000000,510.500000 
	C2556.000000,447.344421 2556.206055,384.187622 2555.819336,321.034393 
	C2555.745850,308.992126 2554.149658,296.804260 2551.833008,284.961975 
	C2546.522461,257.814697 2534.764893,233.971100 2513.761475,215.155167 
	C2501.791260,204.431503 2488.299561,196.436569 2473.291016,191.043121 
	C2457.594238,185.402328 2441.441406,182.118332 2424.693848,180.757172 
	C2407.269287,179.340973 2389.959961,179.582886 2372.854004,182.264526 
	C2355.050781,185.055481 2337.975342,190.735611 2322.205566,199.911819 
	C2311.070801,206.390961 2300.920898,214.033920 2292.105469,223.420227 
	C2290.217041,225.431030 2288.556152,227.655884 2286.790527,229.782104 
	C2286.458740,229.579849 2286.127197,229.377594 2285.795410,229.175354 
	C2285.795410,154.914917 2285.795410,80.654503 2285.795410,6.312114 
	C2252.410645,6.312114 2219.358154,6.312114 2186.325439,6.312114 
	C2186.325439,204.989716 2186.325439,403.355042 2186.325439,601.630676 
	C2219.705322,601.630676 2252.758301,601.630676 2286.000000,601.630676 
	C2286.000000,599.272461 2286.000000,597.282959 2286.000000,595.293518 
	C2286.000000,530.304871 2285.964600,465.316193 2286.043945,400.327637 
	C2286.053955,392.064667 2286.536377,383.794891 2287.021484,375.541290 
	C2288.184814,355.751526 2293.382568,337.112640 2303.514648,319.988647 
	C2319.182617,293.508698 2342.981201,279.780518 2373.125000,277.173096 
	C2386.870850,275.984131 2400.777832,276.545410 2414.173096,280.992859 
	C2426.465820,285.074432 2436.629639,291.910431 2443.583008,303.094208 
	C2452.769531,317.869873 2455.803711,334.412964 2455.865723,351.294067 
	C2456.164307,432.778717 2456.000000,514.265076 2456.000000,595.750854 
	C2456.000000,597.698425 2456.000000,599.645996 2456.000000,601.698486 
	C2489.568359,601.698486 2522.621094,601.698486 2556.000000,601.698486 
	C2556.000000,571.432007 2556.000000,541.466003 2556.000000,510.500000 
M1382.474976,242.026443 
	C1381.263428,243.568588 1380.118774,245.169235 1378.829834,246.643707 
	C1366.560669,260.679993 1356.761841,276.214661 1348.853760,293.147217 
	C1336.261475,320.109802 1329.881958,348.603546 1328.292725,377.993652 
	C1327.359131,395.261139 1328.758911,412.731232 1330.146240,430.026978 
	C1331.631592,448.544739 1336.234131,466.441925 1342.836670,483.919373 
	C1354.170288,513.920288 1370.764648,540.099915 1394.886841,561.545776 
	C1410.045166,575.022400 1426.816650,585.583862 1445.294434,593.776733 
	C1471.152710,605.242004 1498.434204,610.394287 1526.402588,611.842834 
	C1544.874756,612.799561 1563.357788,611.775208 1581.774658,609.135376 
	C1600.991821,606.380859 1619.609741,601.912842 1637.866211,595.193787 
	C1666.875244,584.517334 1691.924561,567.898743 1713.861938,546.467651 
	C1720.999268,539.495117 1727.219604,531.549866 1733.540039,523.789429 
	C1736.841187,519.736267 1739.448730,515.118286 1742.605957,510.402100 
	C1713.882446,493.656952 1685.866455,477.324280 1659.007446,461.666168 
	C1649.171875,471.778076 1640.485352,482.644470 1629.916870,491.180634 
	C1606.186035,510.347900 1577.924805,518.279907 1547.886230,519.822205 
	C1538.593750,520.299377 1529.111694,519.229309 1519.858643,517.887329 
	C1500.762695,515.117676 1483.857300,506.798553 1469.221802,494.520416 
	C1453.213989,481.090912 1441.806152,464.214386 1436.480225,443.790436 
	C1434.496460,436.183716 1433.709351,428.264923 1432.255615,419.782532 
	C1534.690430,419.782532 1635.748413,419.782532 1738.149414,419.782532 
	C1736.743530,400.927307 1735.695557,382.653229 1733.908325,364.451721 
	C1732.795166,353.116394 1731.242676,341.734772 1728.692627,330.648773 
	C1723.558838,308.330353 1716.584595,286.505066 1704.789185,266.714966 
	C1698.408569,256.009521 1691.424805,245.438904 1683.268188,236.064835 
	C1667.376221,217.801041 1647.731445,204.352737 1625.295898,195.026169 
	C1602.912964,185.721497 1579.381226,181.434006 1555.423462,180.200668 
	C1534.667725,179.132156 1513.897339,179.967163 1493.263550,183.826981 
	C1476.746094,186.916763 1460.710571,191.256332 1445.367920,197.972366 
	C1421.708862,208.328766 1400.752930,222.670715 1382.474976,242.026443 
M757.691772,331.083191 
	C752.603638,332.112793 747.513184,333.131256 742.427673,334.173920 
	C719.980774,338.776154 697.554077,343.478943 675.084351,347.966553 
	C651.053345,352.765930 626.896484,356.818359 604.189514,366.832825 
	C582.936401,376.206146 564.038147,388.368835 548.946045,406.389069 
	C531.726196,426.949768 524.263184,450.967499 523.233765,477.090698 
	C522.811584,487.804169 524.276672,498.741272 526.108154,509.365509 
	C531.034058,537.940796 544.977844,561.389954 567.381531,579.989075 
	C592.497925,600.840149 621.972595,609.747070 653.789246,611.856812 
	C671.241028,613.014038 688.646729,611.273804 705.918518,608.076721 
	C731.804993,603.285034 755.726440,593.715271 777.858337,579.599182 
	C784.504700,575.359985 790.870544,570.681091 797.793152,565.908325 
	C797.876526,567.153870 797.978333,568.072388 797.993408,568.992371 
	C798.162109,579.256287 801.148682,588.821106 804.979553,598.227234 
	C806.268005,601.390747 808.230835,602.084351 811.445984,602.072510 
	C843.772156,601.953552 876.098877,602.002747 908.425476,601.991516 
	C909.857971,601.991028 911.290466,601.864685 913.500916,601.760254 
	C911.598511,598.449707 909.733093,595.805298 908.466858,592.899780 
	C901.474060,576.854370 898.198730,559.857544 898.127747,542.533447 
	C897.826782,469.050049 897.912170,395.564484 898.062317,322.080139 
	C898.099731,303.759369 896.785034,285.659912 891.978027,267.941559 
	C884.061279,238.760834 866.853455,216.593002 840.342834,202.204071 
	C821.777893,192.127731 801.682678,186.212296 780.603210,183.997040 
	C767.234253,182.592056 753.873474,180.625381 740.467285,180.187759 
	C725.566528,179.701370 710.592407,180.237503 695.699280,181.138184 
	C684.295532,181.827850 672.805786,183.001587 661.642578,185.337433 
	C642.542664,189.334000 624.019775,195.406235 606.883057,205.040451 
	C591.192993,213.861389 577.558289,224.972794 566.658569,239.552063 
	C556.200439,253.540695 549.549133,269.095581 546.227966,285.989746 
	C544.383423,295.372986 544.230652,305.088806 543.308350,314.728058 
	C557.520874,315.536926 570.356750,316.438873 583.208191,316.951904 
	C596.794312,317.494324 610.398376,317.575989 623.988464,318.039215 
	C630.522278,318.261932 637.041992,318.899384 643.481079,319.343048 
	C644.044312,313.580719 644.501770,308.693604 645.002625,303.810913 
	C647.080444,283.555511 656.053894,269.382050 676.027222,263.095795 
	C693.821960,257.495209 712.141907,256.214020 730.903015,257.730011 
	C743.720642,258.765717 756.209656,260.276978 768.158264,265.005829 
	C778.579956,269.130432 787.343567,275.372040 792.357544,285.828094 
	C797.599304,296.759033 798.240845,308.443756 797.933044,321.156433 
	C784.860962,324.426971 771.703735,327.718842 757.691772,331.083191 
M1795.493042,508.994110 
	C1797.246460,512.114075 1799.008545,515.229126 1800.751709,518.354736 
	C1811.831787,538.221619 1826.540161,555.178833 1844.082520,569.388123 
	C1856.931641,579.795837 1871.143555,588.370850 1886.505737,594.946777 
	C1911.865479,605.802246 1938.372559,611.466919 1965.803589,611.787781 
	C1981.238037,611.968323 1996.747070,610.479736 2012.132812,608.881165 
	C2029.707275,607.055237 2046.388794,601.574158 2062.425781,594.187317 
	C2077.171875,587.395081 2090.479004,578.546143 2102.847656,567.930420 
	C2113.935303,558.414368 2123.867920,547.865967 2131.846924,535.886841 
	C2142.605957,519.733459 2151.920410,502.617828 2161.989502,485.688660 
	C2132.306885,470.032898 2103.796143,454.995209 2075.713623,440.183502 
	C2069.908447,451.187988 2064.853516,461.721680 2058.944336,471.752228 
	C2049.660645,487.510864 2037.307007,500.393799 2020.914673,508.989075 
	C2000.439941,519.724854 1978.854126,522.193787 1956.202881,518.080200 
	C1939.052246,514.965515 1924.121094,507.562286 1911.458496,495.831146 
	C1898.498413,483.824341 1890.004150,468.770447 1884.020020,452.295349 
	C1879.553589,439.998993 1876.417725,427.321228 1876.074341,414.200928 
	C1875.720703,400.686859 1874.808716,387.020233 1876.317383,373.666199 
	C1878.288574,356.218353 1883.722778,339.531769 1892.449463,323.966797 
	C1905.051880,301.489258 1922.972290,285.337769 1947.401489,277.151611 
	C1961.769165,272.337067 1976.646851,270.828979 1991.962402,272.860413 
	C2011.572021,275.461365 2028.312378,283.529266 2042.472290,297.048126 
	C2054.373291,308.410034 2062.697021,322.100067 2067.608643,338.269165 
	C2097.060059,324.761230 2126.398193,311.305145 2156.033936,297.712677 
	C2154.674805,294.799164 2153.397949,292.214874 2152.248291,289.575165 
	C2141.115234,264.009857 2126.233643,241.156784 2105.136475,222.516541 
	C2092.812256,211.627197 2079.353271,202.780182 2064.380371,196.018845 
	C2042.882446,186.310898 2020.183960,181.457916 1996.860840,180.180450 
	C1975.773315,179.025452 1954.650513,179.961990 1933.775269,183.970688 
	C1913.755249,187.815186 1894.541016,193.830536 1876.320801,203.176437 
	C1854.453125,214.393280 1835.535156,229.102219 1819.563965,247.813568 
	C1809.886597,259.151398 1801.733643,271.407440 1794.815308,284.545532 
	C1786.144775,301.010895 1780.140381,318.473785 1776.072754,336.568665 
	C1772.181152,353.879822 1769.469238,371.400726 1770.042847,389.226715 
	C1770.494263,403.253723 1770.857422,417.312164 1772.152344,431.273865 
	C1773.096680,441.456757 1774.414429,451.847473 1777.488892,461.535278 
	C1782.525269,477.406128 1789.124634,492.781036 1795.493042,508.994110 
M968.000366,591.473389 
	C968.000366,594.903992 968.000366,598.334595 968.000366,601.615112 
	C1001.730774,601.615112 1034.786987,601.615112 1067.750977,601.615112 
	C1067.750977,402.964050 1067.750977,204.698212 1067.750977,6.297890 
	C1034.445679,6.297890 1001.390198,6.297890 968.000366,6.297890 
	C968.000366,201.223526 968.000366,395.851440 968.000366,591.473389 
z"/>
<path fill="#F58427" opacity="1.000000" stroke="none" 
	d="
M0.999998,272.468658 
	C1.663578,271.326843 2.778903,270.739014 2.924499,269.968048 
	C6.333534,251.916031 8.525712,233.545593 13.274632,215.860168 
	C18.004208,198.246811 24.775581,181.114822 31.581263,164.144547 
	C38.444141,147.031662 48.024323,131.254639 58.988514,116.432556 
	C65.397957,107.767883 72.392036,99.526367 79.297981,91.240234 
	C93.620949,74.054756 110.941948,60.249229 129.611023,48.211452 
	C153.798004,32.615753 179.929047,21.203035 208.124130,15.111856 
	C220.529282,12.431886 233.150436,10.515308 245.769974,9.132518 
	C257.725464,7.822492 269.865417,6.599596 281.819336,7.254199 
	C298.782532,8.183110 315.796387,10.050730 332.512085,13.055383 
	C346.310303,15.535618 359.963165,19.514879 373.222565,24.141977 
	C393.584015,31.247473 412.310394,41.749638 428.947479,55.576065 
	C437.191925,62.427681 445.143616,69.698067 452.676208,77.323837 
	C463.479370,88.260651 472.201660,100.877640 480.008606,114.088226 
	C493.748291,137.338074 502.758026,162.451126 508.969543,188.636993 
	C509.080261,189.103897 508.940582,189.630219 508.896271,190.599487 
	C473.935181,199.537949 438.858856,208.505875 403.444305,217.560272 
	C400.625336,202.604507 397.430573,188.453476 389.864899,175.962631 
	C384.665802,167.378952 378.842560,159.094055 372.572754,151.255981 
	C362.109467,138.175461 348.619202,128.800476 333.453217,121.856316 
	C319.002808,115.239815 303.877258,111.513885 287.990356,109.822441 
	C267.024109,107.590225 246.637314,110.253151 226.854584,116.307671 
	C208.667603,121.873802 192.250107,131.168930 177.509705,143.715759 
	C160.333832,158.335617 147.644882,176.137390 137.723206,195.942093 
	C127.280296,216.787247 120.823601,239.005371 116.839737,262.069794 
	C112.929977,284.705200 112.171074,307.458313 113.212288,330.209076 
	C114.128807,350.235077 116.743004,370.273010 123.141548,389.399384 
	C128.072067,404.137573 133.227188,418.987488 140.210266,432.814056 
	C155.853897,463.788635 179.268402,487.503784 211.185822,501.931366 
	C226.370132,508.795135 242.359253,513.230591 259.170441,513.999512 
	C266.766174,514.346985 274.382538,515.189514 281.956055,514.907410 
	C310.741241,513.835327 336.938629,505.363983 359.580536,486.972198 
	C374.557251,474.806732 386.906372,460.383209 395.748444,443.329895 
	C403.324860,428.717651 409.702484,413.483856 416.812927,398.086121 
	C449.219299,412.950592 482.521118,428.225830 516.034119,443.597900 
	C503.764954,474.407104 488.574707,503.556061 467.845886,529.564758 
	C461.402283,537.649597 454.861755,545.797974 447.396423,552.898132 
	C432.475159,567.089417 416.220490,579.520752 397.807404,589.196106 
	C380.627136,598.223572 362.741180,605.016235 343.959198,609.475098 
	C335.420135,611.502319 326.639343,612.505676 317.980896,614.044861 
	C317.087555,614.203674 316.280975,614.850525 315.717041,615.635498 
	C289.312439,616.000000 262.624878,616.000000 235.768417,615.638062 
	C234.586365,614.852173 233.609680,614.226013 232.554382,614.035706 
	C221.999039,612.131592 211.295197,610.857361 200.893997,608.331726 
	C178.463257,602.884888 156.988388,594.921265 136.758362,583.493713 
	C120.466354,574.290649 105.264000,563.623779 91.712822,550.907410 
	C81.771301,541.578369 72.748390,531.142700 64.180801,520.503845 
	C46.294823,498.293915 33.006218,473.332153 23.409126,446.561493 
	C18.176908,431.966370 13.597288,417.025513 10.230059,401.904999 
	C6.839006,386.677551 5.334005,371.031342 2.900741,355.584656 
	C2.804198,354.971832 1.657426,354.524475 1.000000,354.000000 
	C1.000000,326.979095 1.000000,299.958221 0.999998,272.468658 
z"/>
<path fill="#F58427" opacity="1.000000" stroke="none" 
	d="
M1234.625000,1.000000 
	C1235.000000,63.790543 1235.000000,126.581085 1235.000000,189.884705 
	C1264.681641,189.884705 1294.068604,189.884705 1323.724243,189.884705 
	C1323.724243,214.117157 1323.724243,237.836731 1323.724243,261.874420 
	C1294.276245,261.874420 1265.006714,261.874420 1234.999878,261.874420 
	C1234.999878,263.932373 1234.999878,265.682556 1234.999878,267.432739 
	C1234.999878,338.246490 1234.883667,409.060638 1235.121216,479.873596 
	C1235.158081,490.870941 1237.201782,501.777649 1245.623535,510.067078 
	C1251.181641,515.537842 1258.333984,517.752014 1265.818481,518.987732 
	C1281.840698,521.632812 1297.518066,518.566711 1313.234497,516.072144 
	C1316.606323,515.536926 1320.033203,515.349182 1323.715332,514.972717 
	C1323.819946,516.500366 1323.985107,517.793579 1323.985962,519.086914 
	C1324.001465,543.580139 1323.951294,568.073547 1324.049683,592.566406 
	C1324.063599,596.044800 1323.585083,597.614685 1319.367554,598.213745 
	C1303.899902,600.410645 1288.621826,604.196716 1273.108765,605.745911 
	C1258.296997,607.225037 1243.236084,607.535339 1228.367065,606.767151 
	C1211.133667,605.876892 1194.099243,602.754944 1178.347534,594.974304 
	C1162.053589,586.925659 1150.044800,574.692322 1143.064575,557.844055 
	C1137.171753,543.620605 1134.956543,528.736755 1134.931763,513.323425 
	C1134.712280,377.098328 1134.309326,240.873550 1134.119385,104.648460 
	C1134.116089,102.230789 1135.479004,99.219925 1137.205688,97.478920 
	C1167.711426,66.721176 1198.375244,36.120220 1228.993164,5.473785 
	C1230.278931,4.186803 1231.452393,2.787443 1232.339111,1.220223 
	C1232.750000,1.000000 1233.500000,1.000000 1234.625000,1.000000 
z"/>
<path fill="#000000" opacity="1.000000" stroke="none" 
	d="
M1.000000,354.468658 
	C1.657426,354.524475 2.804198,354.971832 2.900741,355.584656 
	C5.334005,371.031342 6.839006,386.677551 10.230059,401.904999 
	C13.597288,417.025513 18.176908,431.966370 23.409126,446.561493 
	C33.006218,473.332153 46.294823,498.293915 64.180801,520.503845 
	C72.748390,531.142700 81.771301,541.578369 91.712822,550.907410 
	C105.264000,563.623779 120.466354,574.290649 136.758362,583.493713 
	C156.988388,594.921265 178.463257,602.884888 200.893997,608.331726 
	C211.295197,610.857361 221.999039,612.131592 232.554382,614.035706 
	C233.609680,614.226013 234.586365,614.852173 235.299759,615.638062 
	C157.068848,616.000000 79.137680,616.000000 1.000000,616.000000 
	C1.000000,528.979187 1.000000,441.958252 1.000000,354.468658 
z"/>
<path fill="#F58427" opacity="1.000000" stroke="none" 
	d="
M2556.000000,511.000000 
	C2556.000000,541.466003 2556.000000,571.432007 2556.000000,601.698486 
	C2522.621094,601.698486 2489.568359,601.698486 2456.000000,601.698486 
	C2456.000000,599.645996 2456.000000,597.698425 2456.000000,595.750854 
	C2456.000000,514.265076 2456.164307,432.778717 2455.865723,351.294067 
	C2455.803711,334.412964 2452.769531,317.869873 2443.583008,303.094208 
	C2436.629639,291.910431 2426.465820,285.074432 2414.173096,280.992859 
	C2400.777832,276.545410 2386.870850,275.984131 2373.125000,277.173096 
	C2342.981201,279.780518 2319.182617,293.508698 2303.514648,319.988647 
	C2293.382568,337.112640 2288.184814,355.751526 2287.021484,375.541290 
	C2286.536377,383.794891 2286.053955,392.064667 2286.043945,400.327637 
	C2285.964600,465.316193 2286.000000,530.304871 2286.000000,595.293518 
	C2286.000000,597.282959 2286.000000,599.272461 2286.000000,601.630676 
	C2252.758301,601.630676 2219.705322,601.630676 2186.325439,601.630676 
	C2186.325439,403.355042 2186.325439,204.989716 2186.325439,6.312114 
	C2219.358154,6.312114 2252.410645,6.312114 2285.795410,6.312114 
	C2285.795410,80.654503 2285.795410,154.914917 2285.795410,229.175354 
	C2286.127197,229.377594 2286.458740,229.579849 2286.790527,229.782104 
	C2288.556152,227.655884 2290.217041,225.431030 2292.105469,223.420227 
	C2300.920898,214.033920 2311.070801,206.390961 2322.205566,199.911819 
	C2337.975342,190.735611 2355.050781,185.055481 2372.854004,182.264526 
	C2389.959961,179.582886 2407.269287,179.340973 2424.693848,180.757172 
	C2441.441406,182.118332 2457.594238,185.402328 2473.291016,191.043121 
	C2488.299561,196.436569 2501.791260,204.431503 2513.761475,215.155167 
	C2534.764893,233.971100 2546.522461,257.814697 2551.833008,284.961975 
	C2554.149658,296.804260 2555.745850,308.992126 2555.819336,321.034393 
	C2556.206055,384.187622 2556.000000,447.344421 2556.000000,511.000000 
z"/>
<path fill="#F58427" opacity="1.000000" stroke="none" 
	d="
M1382.730347,241.774780 
	C1400.752930,222.670715 1421.708862,208.328766 1445.367920,197.972366 
	C1460.710571,191.256332 1476.746094,186.916763 1493.263550,183.826981 
	C1513.897339,179.967163 1534.667725,179.132156 1555.423462,180.200668 
	C1579.381226,181.434006 1602.912964,185.721497 1625.295898,195.026169 
	C1647.731445,204.352737 1667.376221,217.801041 1683.268188,236.064835 
	C1691.424805,245.438904 1698.408569,256.009521 1704.789185,266.714966 
	C1716.584595,286.505066 1723.558838,308.330353 1728.692627,330.648773 
	C1731.242676,341.734772 1732.795166,353.116394 1733.908325,364.451721 
	C1735.695557,382.653229 1736.743530,400.927307 1738.149414,419.782532 
	C1635.748413,419.782532 1534.690430,419.782532 1432.255615,419.782532 
	C1433.709351,428.264923 1434.496460,436.183716 1436.480225,443.790436 
	C1441.806152,464.214386 1453.213989,481.090912 1469.221802,494.520416 
	C1483.857300,506.798553 1500.762695,515.117676 1519.858643,517.887329 
	C1529.111694,519.229309 1538.593750,520.299377 1547.886230,519.822205 
	C1577.924805,518.279907 1606.186035,510.347900 1629.916870,491.180634 
	C1640.485352,482.644470 1649.171875,471.778076 1659.007446,461.666168 
	C1685.866455,477.324280 1713.882446,493.656952 1742.605957,510.402100 
	C1739.448730,515.118286 1736.841187,519.736267 1733.540039,523.789429 
	C1727.219604,531.549866 1720.999268,539.495117 1713.861938,546.467651 
	C1691.924561,567.898743 1666.875244,584.517334 1637.866211,595.193787 
	C1619.609741,601.912842 1600.991821,606.380859 1581.774658,609.135376 
	C1563.357788,611.775208 1544.874756,612.799561 1526.402588,611.842834 
	C1498.434204,610.394287 1471.152710,605.242004 1445.294434,593.776733 
	C1426.816650,585.583862 1410.045166,575.022400 1394.886841,561.545776 
	C1370.764648,540.099915 1354.170288,513.920288 1342.836670,483.919373 
	C1336.234131,466.441925 1331.631592,448.544739 1330.146240,430.026978 
	C1328.758911,412.731232 1327.359131,395.261139 1328.292725,377.993652 
	C1329.881958,348.603546 1336.261475,320.109802 1348.853760,293.147217 
	C1356.761841,276.214661 1366.560669,260.679993 1378.829834,246.643707 
	C1380.118774,245.169235 1381.263428,243.568588 1382.730347,241.774780 
M1628.924927,326.676544 
	C1628.724609,326.410706 1628.438721,326.174225 1628.336060,325.874969 
	C1620.012817,301.591095 1604.387329,283.495880 1581.527222,272.010437 
	C1564.678955,263.545593 1546.814331,260.685089 1527.827515,262.815765 
	C1507.988647,265.041992 1489.991089,271.073639 1473.690430,282.723450 
	C1452.700317,297.724701 1439.726807,317.904663 1433.089966,342.617188 
	C1499.492676,342.617188 1565.676758,342.617188 1632.726685,342.617188 
	C1631.425171,337.206299 1630.255493,332.343292 1628.924927,326.676544 
z"/>
<path fill="#F58427" opacity="1.000000" stroke="none" 
	d="
M758.119141,331.046936 
	C771.703735,327.718842 784.860962,324.426971 797.933044,321.156433 
	C798.240845,308.443756 797.599304,296.759033 792.357544,285.828094 
	C787.343567,275.372040 778.579956,269.130432 768.158264,265.005829 
	C756.209656,260.276978 743.720642,258.765717 730.903015,257.730011 
	C712.141907,256.214020 693.821960,257.495209 676.027222,263.095795 
	C656.053894,269.382050 647.080444,283.555511 645.002625,303.810913 
	C644.501770,308.693604 644.044312,313.580719 643.481079,319.343048 
	C637.041992,318.899384 630.522278,318.261932 623.988464,318.039215 
	C610.398376,317.575989 596.794312,317.494324 583.208191,316.951904 
	C570.356750,316.438873 557.520874,315.536926 543.308350,314.728058 
	C544.230652,305.088806 544.383423,295.372986 546.227966,285.989746 
	C549.549133,269.095581 556.200439,253.540695 566.658569,239.552063 
	C577.558289,224.972794 591.192993,213.861389 606.883057,205.040451 
	C624.019775,195.406235 642.542664,189.334000 661.642578,185.337433 
	C672.805786,183.001587 684.295532,181.827850 695.699280,181.138184 
	C710.592407,180.237503 725.566528,179.701370 740.467285,180.187759 
	C753.873474,180.625381 767.234253,182.592056 780.603210,183.997040 
	C801.682678,186.212296 821.777893,192.127731 840.342834,202.204071 
	C866.853455,216.593002 884.061279,238.760834 891.978027,267.941559 
	C896.785034,285.659912 898.099731,303.759369 898.062317,322.080139 
	C897.912170,395.564484 897.826782,469.050049 898.127747,542.533447 
	C898.198730,559.857544 901.474060,576.854370 908.466858,592.899780 
	C909.733093,595.805298 911.598511,598.449707 913.500916,601.760254 
	C911.290466,601.864685 909.857971,601.991028 908.425476,601.991516 
	C876.098877,602.002747 843.772156,601.953552 811.445984,602.072510 
	C808.230835,602.084351 806.268005,601.390747 804.979553,598.227234 
	C801.148682,588.821106 798.162109,579.256287 797.993408,568.992371 
	C797.978333,568.072388 797.876526,567.153870 797.793152,565.908325 
	C790.870544,570.681091 784.504700,575.359985 777.858337,579.599182 
	C755.726440,593.715271 731.804993,603.285034 705.918518,608.076721 
	C688.646729,611.273804 671.241028,613.014038 653.789246,611.856812 
	C621.972595,609.747070 592.497925,600.840149 567.381531,579.989075 
	C544.977844,561.389954 531.034058,537.940796 526.108154,509.365509 
	C524.276672,498.741272 522.811584,487.804169 523.233765,477.090698 
	C524.263184,450.967499 531.726196,426.949768 548.946045,406.389069 
	C564.038147,388.368835 582.936401,376.206146 604.189514,366.832825 
	C626.896484,356.818359 651.053345,352.765930 675.084351,347.966553 
	C697.554077,343.478943 719.980774,338.776154 742.427673,334.173920 
	C747.513184,333.131256 752.603638,332.112793 758.119141,331.046936 
M792.086304,479.559875 
	C792.735107,478.076691 793.498230,476.632141 794.014282,475.104126 
	C797.799683,463.896698 798.107849,452.290192 798.024597,440.615417 
	C797.921692,426.182434 798.000000,411.748199 798.000000,398.008972 
	C784.800598,401.907379 771.942261,406.181000 758.832458,409.445129 
	C745.312439,412.811401 731.492432,414.953857 717.903748,418.068359 
	C700.075623,422.154633 682.243530,426.296906 664.610168,431.133575 
	C653.518494,434.175934 643.968201,440.531708 637.142029,449.900696 
	C630.043030,459.644165 627.827332,470.798950 628.850281,482.953979 
	C629.820190,494.478821 634.361755,504.147736 642.487488,511.774384 
	C655.930908,524.392151 672.767090,529.374756 690.771545,529.860107 
	C705.193909,530.248840 719.525757,527.999634 733.341736,523.889526 
	C758.071838,516.532532 779.787354,504.761353 792.086304,479.559875 
z"/>
<path fill="#F58427" opacity="1.000000" stroke="none" 
	d="
M1795.279053,508.679565 
	C1789.124634,492.781036 1782.525269,477.406128 1777.488892,461.535278 
	C1774.414429,451.847473 1773.096680,441.456757 1772.152344,431.273865 
	C1770.857422,417.312164 1770.494263,403.253723 1770.042847,389.226715 
	C1769.469238,371.400726 1772.181152,353.879822 1776.072754,336.568665 
	C1780.140381,318.473785 1786.144775,301.010895 1794.815308,284.545532 
	C1801.733643,271.407440 1809.886597,259.151398 1819.563965,247.813568 
	C1835.535156,229.102219 1854.453125,214.393280 1876.320801,203.176437 
	C1894.541016,193.830536 1913.755249,187.815186 1933.775269,183.970688 
	C1954.650513,179.961990 1975.773315,179.025452 1996.860840,180.180450 
	C2020.183960,181.457916 2042.882446,186.310898 2064.380371,196.018845 
	C2079.353271,202.780182 2092.812256,211.627197 2105.136475,222.516541 
	C2126.233643,241.156784 2141.115234,264.009857 2152.248291,289.575165 
	C2153.397949,292.214874 2154.674805,294.799164 2156.033936,297.712677 
	C2126.398193,311.305145 2097.060059,324.761230 2067.608643,338.269165 
	C2062.697021,322.100067 2054.373291,308.410034 2042.472290,297.048126 
	C2028.312378,283.529266 2011.572021,275.461365 1991.962402,272.860413 
	C1976.646851,270.828979 1961.769165,272.337067 1947.401489,277.151611 
	C1922.972290,285.337769 1905.051880,301.489258 1892.449463,323.966797 
	C1883.722778,339.531769 1878.288574,356.218353 1876.317383,373.666199 
	C1874.808716,387.020233 1875.720703,400.686859 1876.074341,414.200928 
	C1876.417725,427.321228 1879.553589,439.998993 1884.020020,452.295349 
	C1890.004150,468.770447 1898.498413,483.824341 1911.458496,495.831146 
	C1924.121094,507.562286 1939.052246,514.965515 1956.202881,518.080200 
	C1978.854126,522.193787 2000.439941,519.724854 2020.914673,508.989075 
	C2037.307007,500.393799 2049.660645,487.510864 2058.944336,471.752228 
	C2064.853516,461.721680 2069.908447,451.187988 2075.713623,440.183502 
	C2103.796143,454.995209 2132.306885,470.032898 2161.989502,485.688660 
	C2151.920410,502.617828 2142.605957,519.733459 2131.846924,535.886841 
	C2123.867920,547.865967 2113.935303,558.414368 2102.847656,567.930420 
	C2090.479004,578.546143 2077.171875,587.395081 2062.425781,594.187317 
	C2046.388794,601.574158 2029.707275,607.055237 2012.132812,608.881165 
	C1996.747070,610.479736 1981.238037,611.968323 1965.803589,611.787781 
	C1938.372559,611.466919 1911.865479,605.802246 1886.505737,594.946777 
	C1871.143555,588.370850 1856.931641,579.795837 1844.082520,569.388123 
	C1826.540161,555.178833 1811.831787,538.221619 1800.751709,518.354736 
	C1799.008545,515.229126 1797.246460,512.114075 1795.279053,508.679565 
z"/>
<path fill="#F58427" opacity="1.000000" stroke="none" 
	d="
M968.000366,590.976379 
	C968.000366,395.851440 968.000366,201.223526 968.000366,6.297890 
	C1001.390198,6.297890 1034.445679,6.297890 1067.750977,6.297890 
	C1067.750977,204.698212 1067.750977,402.964050 1067.750977,601.615112 
	C1034.786987,601.615112 1001.730774,601.615112 968.000366,601.615112 
	C968.000366,598.334595 968.000366,594.903992 968.000366,590.976379 
z"/>
<path fill="#000000" opacity="1.000000" stroke="none" 
	d="
M1629.005371,327.078430 
	C1630.255493,332.343292 1631.425171,337.206299 1632.726685,342.617188 
	C1565.676758,342.617188 1499.492676,342.617188 1433.089966,342.617188 
	C1439.726807,317.904663 1452.700317,297.724701 1473.690430,282.723450 
	C1489.991089,271.073639 1507.988647,265.041992 1527.827515,262.815765 
	C1546.814331,260.685089 1564.678955,263.545593 1581.527222,272.010437 
	C1604.387329,283.495880 1620.012817,301.591095 1628.336060,325.874969 
	C1628.438721,326.174225 1628.724609,326.410706 1629.005371,327.078430 
z"/>
<path fill="#000000" opacity="1.000000" stroke="none" 
	d="
M792.012817,479.939819 
	C779.787354,504.761353 758.071838,516.532532 733.341736,523.889526 
	C719.525757,527.999634 705.193909,530.248840 690.771545,529.860107 
	C672.767090,529.374756 655.930908,524.392151 642.487488,511.774384 
	C634.361755,504.147736 629.820190,494.478821 628.850281,482.953979 
	C627.827332,470.798950 630.043030,459.644165 637.142029,449.900696 
	C643.968201,440.531708 653.518494,434.175934 664.610168,431.133575 
	C682.243530,426.296906 700.075623,422.154633 717.903748,418.068359 
	C731.492432,414.953857 745.312439,412.811401 758.832458,409.445129 
	C771.942261,406.181000 784.800598,401.907379 798.000000,398.008972 
	C798.000000,411.748199 797.921692,426.182434 798.024597,440.615417 
	C798.107849,452.290192 797.799683,463.896698 794.014282,475.104126 
	C793.498230,476.632141 792.735107,478.076691 792.012817,479.939819 
z"/>
</svg>