<?xml version="1.0" standalone="no"?>
<!DOCTYPE svg PUBLIC "-//W3C//DTD SVG 20010904//EN"
 "http://www.w3.org/TR/2001/REC-SVG-20010904/DTD/svg10.dtd">
<svg version="1.0" xmlns="http://www.w3.org/2000/svg"
 width="300.000000pt" height="157.000000pt" viewBox="0 0 300.000000 157.000000"
 preserveAspectRatio="xMidYMid meet">

<g transform="translate(0.000000,157.000000) scale(0.100000,-0.100000)"
fill="#000000" stroke="none">
<path d="M0 1130 l0 -440 542 0 542 0 -27 28 c-52 54 -57 82 -57 329 l0 228
92 0 93 0 5 -223 c5 -220 5 -224 29 -243 30 -25 92 -25 122 0 24 19 24 23 29
241 l5 222 95 0 95 0 3 -193 c3 -226 -6 -281 -54 -344 l-34 -45 147 0 146 0
-36 37 c-155 154 -106 445 91 540 49 23 69 27 142 26 95 0 148 -16 213 -63 39
-28 95 -96 86 -104 -2 -2 -37 -20 -77 -40 l-73 -37 -42 46 c-33 37 -50 47 -82
51 -53 7 -103 -21 -128 -70 -26 -49 -26 -158 -1 -211 45 -96 180 -99 229 -6
l15 31 53 -24 c98 -44 107 -49 107 -62 0 -6 -21 -35 -46 -63 l-46 -51 91 0 91
0 0 295 0 296 98 -3 97 -3 3 -233 2 -233 128 2 c87 1 127 -2 128 -10 1 -6 2
-33 3 -61 l1 -50 90 0 90 0 0 440 0 440 -1500 0 -1500 0 0 -440z m830 63 c0
-17 -7 -20 -46 -20 -44 0 -45 1 -39 26 3 14 13 31 21 37 7 6 14 17 14 23 0 7
11 -1 25 -17 14 -17 25 -39 25 -49z m21 -38 c36 -7 36 -7 31 -51 -2 -25 0 -50
7 -57 6 -8 8 -17 4 -20 -3 -4 -53 -7 -111 -7 -96 0 -103 1 -96 18 5 9 9 38 9
64 0 47 0 48 40 57 22 5 49 8 60 6 11 -2 36 -7 56 -10z"/>
<path d="M710 1095 c0 -19 5 -35 10 -35 6 0 10 16 10 35 0 19 -4 35 -10 35 -5
0 -10 -16 -10 -35z"/>
<path d="M740 1095 c0 -19 5 -35 10 -35 6 0 10 16 10 35 0 19 -4 35 -10 35 -5
0 -10 -16 -10 -35z"/>
<path d="M780 1095 c0 -19 5 -35 10 -35 6 0 10 16 10 35 0 19 -4 35 -10 35 -5
0 -10 -16 -10 -35z"/>
<path d="M810 1095 c0 -19 5 -35 10 -35 6 0 10 16 10 35 0 19 -4 35 -10 35 -5
0 -10 -16 -10 -35z"/>
<path d="M844 1116 c-8 -21 -1 -49 14 -54 8 -2 12 8 12 32 0 36 -16 49 -26 22z"/>
</g>
</svg>
